<?xml version="1.0" encoding="utf-8"?>
<!-- Generator: Adobe Illustrator 18.0.0, SVG Export Plug-In . SVG Version: 6.00 Build 0)  -->
<!DOCTYPE svg PUBLIC "-//W3C//DTD SVG 1.1//EN" "http://www.w3.org/Graphics/SVG/1.1/DTD/svg11.dtd">
<svg version="1.1" id="Calque_1" xmlns="http://www.w3.org/2000/svg" xmlns:xlink="http://www.w3.org/1999/xlink" x="0px" y="0px"
   viewBox="0 0 24 24" enable-background="new 0 0 24 24" xml:space="preserve">
<g>
  <path fill="#40B1B9" d="M15.3,23.5H9V17l-5.3,3.2l-3.3-5.4l5.4-3L0.5,8.8l3.2-5.5L9,6.4V0.3h6.2v6.2l5.3-3.1l3.1,5.2l-5.1,3.2
    l5.1,3l-3,5.5l-5.3-3.1V23.5z M9.3,23.2H15v-6.4l5.5,3.2l2.8-5l-5.3-3l5.3-3.3l-2.9-4.8L15,7V0.6H9.3v6.3L3.8,3.6l-3,5.1l5.6,3.2
    L0.8,15l3,4.9l5.4-3.3V23.2z"/>
  <polygon fill="#40B1B9" points="9.5,7.4 9.5,0.9 14.6,0.9 14.6,7.4 20.3,4.1 22.9,8.5 17.4,11.9 22.9,15.1 20.3,19.6 14.7,16.2
    14.7,22.9 9.5,22.9 9.5,16.2 3.9,19.5 1.3,15.1 6.9,11.9 1.3,8.6 4,4.1  "/>
  <g>
    <g>
      <path fill="#F8F7F7" d="M12.6,18.8v1.5L12.1,21c0,0,0.2,0.2,0.4,0c0.2-0.2,1.3-0.4,0.4-1.7L12.6,18.8z"/>
      <path fill="#FCFCFC" d="M12.4,21.1L12.4,21.1c-0.2,0-0.3-0.1-0.3-0.1l0,0l0.5-0.7v-1.6l0.5,0.6c0.3,0.4,0.4,0.8,0.3,1
        c-0.1,0.3-0.4,0.5-0.6,0.6c-0.1,0-0.1,0.1-0.2,0.1C12.5,21.1,12.5,21.1,12.4,21.1z M12.2,20.9c0,0,0.1,0,0.1,0l0,0
        c0.1,0,0.1,0,0.2-0.1c0,0,0.1-0.1,0.2-0.1c0.2-0.1,0.5-0.3,0.5-0.5c0.1-0.2,0-0.6-0.3-0.9L12.6,19v1.3L12.2,20.9z"/>
    </g>
    <g>
      <path fill="#1B4949" d="M12.4,21.1L12.4,21.1c-0.2,0-0.3-0.1-0.3-0.1l0,0l0.5-0.7v-1.6l0.5,0.6c0.3,0.4,0.4,0.8,0.3,1
        c-0.1,0.3-0.4,0.5-0.6,0.6c-0.1,0-0.1,0.1-0.2,0.1C12.5,21.1,12.5,21.1,12.4,21.1z M12.2,20.9c0,0,0.1,0,0.1,0l0,0
        c0.1,0,0.1,0,0.2-0.1c0,0,0.1-0.1,0.2-0.1c0.2-0.1,0.5-0.3,0.5-0.5c0.1-0.2,0-0.6-0.3-0.9L12.6,19v1.3L12.2,20.9z"/>
      <path fill="#FCFCFC" d="M12.4,21.2c-0.2,0-0.3-0.1-0.3-0.1L12,21l0.5-0.7v-1.8l0.6,0.7c0.3,0.4,0.4,0.8,0.4,1.1
        c-0.1,0.4-0.4,0.5-0.6,0.7c-0.1,0-0.1,0.1-0.2,0.1C12.6,21.1,12.5,21.2,12.4,21.2z M12.2,21c0,0,0.1,0.1,0.2,0.1
        C12.3,21.1,12.2,21,12.2,21L12.2,21z M12.3,20.9c0.1,0,0.1,0,0.2,0c0.1-0.1,0.1-0.1,0.2-0.1c0.2-0.1,0.4-0.2,0.5-0.5
        c0.1-0.2-0.1-0.5-0.3-0.9l-0.2-0.2v1.2L12.3,20.9z M12.6,18.8v1.5V18.8l0.4,0.5c0.3,0.4,0.4,0.7,0.3,1c0-0.3-0.1-0.6-0.3-1
        L12.6,18.8z"/>
    </g>
  </g>
  <g>
    <g>
      <path fill="#FBFAFA" d="M11.6,19.2c0,0-1.8-1.7,0-2.7c0.5-0.3,1.1-1,1.1-1v-1.6c0,0,1,0.3,0.8,1.8c-0.2,1-1.3,1.5-1.3,1.6
        c0,0.1-0.5,0.3-0.5,1C11.6,19.2,11.6,19.2,11.6,19.2z"/>
      <path fill="#FCFCFC" d="M11.7,19.3L11.7,19.3c-0.1-0.1-1-1-0.9-1.8c0.1-0.4,0.3-0.8,0.8-1.1c0.5-0.3,1-0.9,1.1-1v-1.6l0.1,0
        c0,0,0.3,0.1,0.5,0.3c0.2,0.2,0.4,0.7,0.3,1.5c-0.1,0.8-0.9,1.3-1.2,1.6c-0.1,0-0.1,0.1-0.1,0.1c0,0,0,0.1-0.1,0.1
        c-0.1,0.1-0.4,0.3-0.4,0.9L11.7,19.3z M12.8,14v1.5l0,0c0,0-0.6,0.7-1.1,1c-0.5,0.3-0.7,0.6-0.8,1c-0.1,0.6,0.4,1.3,0.7,1.5
        l0-0.7c0-0.6,0.3-0.9,0.5-1c0,0,0,0,0.1-0.1c0,0,0-0.1,0.2-0.1c0.3-0.2,1-0.7,1.1-1.5C13.6,14.5,13,14.1,12.8,14z"/>
    </g>
    <g>
      <path fill="#1B4949" d="M11.7,19.3L11.7,19.3c-0.1-0.1-1-1-0.9-1.8c0.1-0.4,0.3-0.8,0.8-1.1c0.5-0.3,1-0.9,1.1-1v-1.6l0.1,0
        c0,0,0.3,0.1,0.5,0.3c0.2,0.2,0.4,0.7,0.3,1.5c-0.1,0.8-0.9,1.3-1.2,1.6c-0.1,0-0.1,0.1-0.1,0.1c0,0,0,0.1-0.1,0.1
        c-0.1,0.1-0.4,0.3-0.4,0.9L11.7,19.3z M12.8,14v1.5l0,0c0,0-0.6,0.7-1.1,1c-0.5,0.3-0.7,0.6-0.8,1c-0.1,0.6,0.4,1.3,0.7,1.5
        l0-0.7c0-0.6,0.3-0.9,0.5-1c0,0,0,0,0.1-0.1c0,0,0-0.1,0.2-0.1c0.3-0.2,1-0.7,1.1-1.5C13.6,14.5,13,14.1,12.8,14z"/>
      <path fill="#FCFCFC" d="M11.7,19.5l-0.2-0.2c0,0-0.9-0.9-0.8-1.8c0.1-0.4,0.3-0.8,0.9-1.1c0.4-0.2,0.9-0.8,1.1-0.9v-1.7l0.2,0
        c0,0,0.3,0.1,0.5,0.4c0.2,0.3,0.5,0.7,0.3,1.6c-0.1,0.9-0.9,1.4-1.2,1.6c0,0-0.1,0.1-0.1,0.1c0,0-0.1,0.1-0.1,0.1
        c-0.1,0.1-0.4,0.3-0.4,0.9L11.7,19.5z M10.8,17.6c-0.1,0.7,0.5,1.4,0.7,1.6l0,0C11.3,18.9,10.8,18.2,10.8,17.6z M12.9,14.1v1.4
        l0,0c0,0-0.6,0.7-1.2,1c-0.4,0.2-0.7,0.6-0.7,0.9c-0.1,0.5,0.3,1.1,0.6,1.4l0-0.5c0-0.7,0.3-0.9,0.5-1.1c0,0,0,0,0,0
        c0-0.1,0.1-0.1,0.2-0.2c0.3-0.2,1-0.7,1.1-1.4C13.5,14.7,13.1,14.3,12.9,14.1z M11.7,18c0,0.1-0.1,0.3-0.1,0.4l0,0.5l0-0.5
        C11.7,18.2,11.7,18.1,11.7,18z M12.1,17.4C12.1,17.4,12.1,17.4,12.1,17.4c-0.1,0.1-0.1,0.1-0.1,0.1C12,17.5,12.1,17.5,12.1,17.4
        C12.1,17.4,12.1,17.4,12.1,17.4z M12.3,17.3C12.2,17.3,12.2,17.3,12.3,17.3l-0.1,0.1L12.3,17.3L12.3,17.3
        C12.2,17.3,12.2,17.3,12.3,17.3z M11.1,17c0,0-0.1,0.1-0.1,0.1C11,17,11,17,11.1,17z M12.7,15.5L12.7,15.5
        c-0.1,0.1-0.6,0.7-1,0.9C12.2,16.2,12.7,15.6,12.7,15.5z M12.8,14L12.8,14c0.2,0.1,0.9,0.5,0.7,1.8c0,0.3-0.1,0.5-0.3,0.7
        c0.1-0.2,0.2-0.4,0.3-0.7c0.1-0.8-0.1-1.2-0.3-1.5C13.1,14.1,12.9,14,12.8,14z M12.7,13.9v1.6V13.9z"/>
    </g>
  </g>
  <g>
    <g>
      <path fill="#FCFCFC" d="M11.5,14.7c0,0-0.2-1,0.6-1.5s1.9-1.3,1.9-2c0-0.7-0.1-1.5-0.5-1.9s-0.8-0.6-0.8-0.6v2c0,0-0.5,0.5-1,0.9
        l-0.4,0.5c0,0-1.1,1-0.3,2.1L11.5,14.7z"/>
      <path fill="#F9F9F9" d="M11.6,14.9L11,14.2c-0.8-1.1,0.3-2.2,0.3-2.2l0.4-0.5c0.4-0.4,0.9-0.8,1-0.9v-2l0.1,0.1
        c0,0,0.3,0.2,0.8,0.6c0.6,0.5,0.6,1.5,0.5,2c0,0.7-1,1.4-2,2c-0.7,0.5-0.6,1.4-0.6,1.4L11.6,14.9z M12.8,8.8v1.9l0,0
        c0,0-0.5,0.5-1,0.9l-0.4,0.5c0,0-0.3,0.3-0.4,0.6c-0.2,0.5-0.2,1,0.2,1.4l0.3,0.4c0-0.3,0.1-1,0.6-1.4c0.6-0.4,1.9-1.2,1.9-1.9
        c0-0.4,0-1.4-0.5-1.9C13.2,9.1,13,8.9,12.8,8.8z"/>
    </g>
    <g>
      <path fill="#FCFCFC" d="M11.6,14.9L11,14.2c-0.8-1.1,0.3-2.2,0.3-2.2l0.4-0.5c0.4-0.4,0.9-0.8,1-0.9v-2l0.1,0.1
        c0,0,0.3,0.2,0.8,0.6c0.6,0.5,0.6,1.5,0.5,2c0,0.7-1,1.4-2,2c-0.7,0.5-0.6,1.4-0.6,1.4L11.6,14.9z M12.8,8.8v1.9l0,0
        c0,0-0.5,0.5-1,0.9l-0.4,0.5c0,0-0.3,0.3-0.4,0.6c-0.2,0.5-0.2,1,0.2,1.4l0.3,0.4c0-0.3,0.1-1,0.6-1.4c0.6-0.4,1.9-1.2,1.9-1.9
        c0-0.4,0-1.4-0.5-1.9C13.2,9.1,13,8.9,12.8,8.8z"/>
      <path fill="#F9F9F9" d="M11.7,15.1L11,14.2c-0.9-1.2,0.3-2.3,0.3-2.3l0.4-0.5c0.4-0.3,0.9-0.8,1-0.9V8.5l0.2,0.1
        c0,0,0.3,0.2,0.8,0.6c0.6,0.5,0.6,1.6,0.5,2c0,0.7-1,1.4-2,2.1c-0.7,0.4-0.5,1.4-0.5,1.4L11.7,15.1z M11.2,14.3l0.4,0.4v0
        c0,0-0.2-1,0.6-1.5c-0.5,0.4-0.6,1-0.6,1.3l0,0.2L11.2,14.3z M12.9,8.9v1.8l0,0c0,0-0.5,0.5-1,0.9l-0.4,0.5c0,0-0.3,0.3-0.4,0.6
        c-0.2,0.5-0.2,0.9,0.1,1.3l0.2,0.3c0-0.4,0.1-0.9,0.7-1.3c0.5-0.4,1.8-1.2,1.9-1.9c0-0.4,0-1.4-0.5-1.8C13.2,9.2,13,9,12.9,8.9z
         M14,11.2c0,0.4-0.5,0.9-1,1.3C13.6,12.1,14,11.6,14,11.2z M12.7,10.7c-0.2,0.1-0.6,0.5-1,0.9l0,0l0,0
        C12.2,11.3,12.6,10.9,12.7,10.7z M12.9,8.8L12.9,8.8C13,8.8,13.2,9,13.5,9.3c0.5,0.5,0.5,1.5,0.5,1.9c0-0.4,0-1.4-0.5-1.9
        C13.2,9,13,8.8,12.9,8.8z M12.8,8.7v2V8.7z"/>
    </g>
  </g>
  <g>
    <g>
      <path fill="#FCFCFC" d="M11.2,9.3c0,0-1.7-1.5-1.1-3.5c0.2-0.7,0.8-1.5,1.8-1.3s0.9,0.8,0.6,1.2C12.1,6.1,11.3,6,11.3,6
        s-0.9,0.3-0.5,0.9c0.4,0.6,0.4,0.9,0.4,0.9V9.3z"/>
      <path fill="#FCFCFC" d="M11.3,9.5l-0.1-0.1c0,0-1.7-1.6-1.1-3.6c0.3-1,1-1.5,1.8-1.4c0.5,0.1,0.7,0.3,0.8,0.5
        c0.1,0.3,0,0.6-0.2,0.8c-0.2,0.3-0.7,0.3-1,0.3c-0.1,0-0.2,0-0.2,0c-0.1,0-0.4,0.2-0.5,0.4c0,0.1,0,0.3,0.1,0.4
        c0.4,0.6,0.4,0.9,0.4,0.9L11.3,9.5z M11.6,4.5c-1,0-1.4,0.9-1.5,1.3c-0.5,1.6,0.6,3,1,3.3V7.8c0,0,0-0.2-0.4-0.8
        c-0.1-0.2-0.2-0.4-0.1-0.5c0.1-0.3,0.6-0.5,0.6-0.5l0,0l0,0c0,0,0.1,0,0.2,0c0.2,0,0.7,0,0.9-0.3c0.1-0.2,0.3-0.5,0.2-0.7
        c-0.1-0.2-0.3-0.3-0.7-0.4C11.7,4.5,11.7,4.5,11.6,4.5z"/>
    </g>
    <g>
      <path fill="#1B4949" d="M11.3,9.5l-0.1-0.1c0,0-1.7-1.6-1.1-3.6c0.3-1,1-1.5,1.8-1.4c0.5,0.1,0.7,0.3,0.8,0.5
        c0.1,0.3,0,0.6-0.2,0.8c-0.2,0.3-0.7,0.3-1,0.3c-0.1,0-0.2,0-0.2,0c-0.1,0-0.4,0.2-0.5,0.4c0,0.1,0,0.3,0.1,0.4
        c0.4,0.6,0.4,0.9,0.4,0.9L11.3,9.5z M11.6,4.5c-1,0-1.4,0.9-1.5,1.3c-0.5,1.6,0.6,3,1,3.3V7.8c0,0,0-0.2-0.4-0.8
        c-0.1-0.2-0.2-0.4-0.1-0.5c0.1-0.3,0.6-0.5,0.6-0.5l0,0l0,0c0,0,0.1,0,0.2,0c0.2,0,0.7,0,0.9-0.3c0.1-0.2,0.3-0.5,0.2-0.7
        c-0.1-0.2-0.3-0.3-0.7-0.4C11.7,4.5,11.7,4.5,11.6,4.5z"/>
      <path fill="#FCFCFC" d="M11.3,9.6l-0.2-0.2c0,0-1.8-1.6-1.2-3.6c0.3-0.9,0.9-1.4,1.7-1.4c0.1,0,0.1,0,0.2,0
        c0.6,0.1,0.8,0.3,0.8,0.5c0.1,0.3,0,0.7-0.2,0.9c-0.3,0.4-1,0.4-1.2,0.3c-0.1,0-0.4,0.2-0.4,0.4c0,0.1,0,0.2,0.1,0.4
        c0.4,0.6,0.4,0.9,0.4,0.9L11.3,9.6z M11.6,4.6c-0.9,0-1.3,0.9-1.4,1.3C9.8,7.3,10.6,8.5,11.1,9V7.8c0,0,0-0.2-0.4-0.8
        c-0.1-0.2-0.2-0.4-0.1-0.6c0.1-0.4,0.6-0.5,0.6-0.5l0,0l0,0c0,0,0.1,0,0.2,0c0.2,0,0.6,0,0.8-0.3c0.1-0.2,0.3-0.4,0.2-0.7
        c-0.1-0.2-0.3-0.3-0.6-0.4C11.7,4.6,11.7,4.6,11.6,4.6z M11.3,6c-0.1,0-0.4,0.2-0.5,0.4c-0.1,0.1,0,0.3,0.1,0.5
        c0,0,0.1,0.1,0.1,0.1c0,0,0-0.1-0.1-0.1c-0.1-0.2-0.1-0.3-0.1-0.5C10.8,6.2,11.2,6,11.3,6L11.3,6z M11.3,6L11.3,6
        c0,0,0.1,0,0.2,0C11.4,6,11.3,6,11.3,6L11.3,6C11.3,6,11.3,6,11.3,6z M12.6,5.2c0,0.2-0.1,0.3-0.2,0.5c-0.1,0.1-0.2,0.2-0.3,0.2
        c0.1,0,0.3-0.1,0.3-0.2C12.5,5.6,12.6,5.4,12.6,5.2z M10.3,5.4c-0.1,0.1-0.1,0.3-0.2,0.4C10.1,5.7,10.2,5.5,10.3,5.4z M11.9,4.5
        c0.2,0,0.3,0.1,0.4,0.1C12.2,4.6,12.1,4.5,11.9,4.5z"/>
    </g>
  </g>
  <g>
    <path fill="#FCFCFC" d="M11.3,4.2v-1c0,0,0.1-0.5,0.7-0.5c0.7,0,0.8,0.4,0.8,0.4l0,1.5c0,0-0.1-0.4-0.7-0.4
      C11.4,4.2,11.3,4.2,11.3,4.2z"/>
    <path fill="#1B4949" d="M12.8,5l-0.1-0.3c0,0-0.1-0.3-0.7-0.3c-0.6,0-0.7,0-0.7,0l-0.1,0V3.2c0,0,0.1-0.5,0.7-0.5
      c0.7,0,0.8,0.5,0.8,0.5L12.8,5z M11.3,4.2c0.1,0,0.3,0,0.7,0c0.3,0,0.5,0.1,0.6,0.2l0-1.3c0,0-0.1-0.4-0.7-0.4
      c-0.5,0-0.6,0.4-0.6,0.4L11.3,4.2z"/>
  </g>
  <g>
    <path fill="#F8F7F7" d="M12.7,5.5c0,0-0.4,0.8-1.4,0.6V12l1.4-1.3L12.7,5.5z"/>
    <path fill="#1B4949" d="M11.3,12.1v-6l0.1,0c0.1,0,0.2,0,0.3,0c0,0,0,0,0,0c0.8,0,1-0.6,1.1-0.6l0.1-0.3l0.1,5.5L11.3,12.1z
       M11.4,6.2v5.6l1.3-1.2l0-4.9c-0.2,0.2-0.5,0.5-1.1,0.5c0,0,0,0,0,0C11.6,6.2,11.5,6.2,11.4,6.2z"/>
  </g>
  <g>
    <path fill="#FCFCFC" d="M11.5,16.6l0-1.9c0,0-0.4-1.1,1.2-1.9l0,2.3c0,0,0,0.6-0.8,1.3L11.5,16.6z"/>
    <path fill="#1B4949" d="M11.5,16.7l0-2c0-0.1-0.3-1.2,1.2-2l0.1,0l0,2.4c0,0,0,0.7-0.8,1.3L11.5,16.7z M12.7,12.9
      c-1.4,0.8-1.1,1.7-1.1,1.8l0,0l0,1.8l0.3-0.2c0.8-0.6,0.8-1.2,0.8-1.2L12.7,12.9z"/>
  </g>
  <g>
    <path fill="#FBFAFA" d="M11.7,18.1v3c0,0,0,0.3,0.4,0.3c0.4,0,0.4-0.3,0.4-0.3s-0.4,0.1-0.5,0c0-0.1,0.5-0.8,0.5-0.8l0.1-3.2
      C12.6,17,11.7,17.7,11.7,18.1z"/>
    <path fill="#1B4949" d="M12.1,21.5C12.1,21.5,12.1,21.5,12.1,21.5c-0.3,0-0.4-0.2-0.4-0.3l0-3c0-0.4,0.8-1,0.9-1.1l0.1-0.1
      l-0.1,3.3l0,0c-0.2,0.3-0.5,0.7-0.5,0.8c0,0,0,0,0.1,0c0.1,0,0.3,0,0.3,0l0.1,0v0.1C12.6,21.1,12.6,21.4,12.1,21.5
      C12.1,21.5,12.1,21.5,12.1,21.5z M12.6,17.2c-0.3,0.2-0.8,0.7-0.8,0.9v3c0,0,0,0.2,0.3,0.2h0c0,0,0,0,0.1,0c0.2,0,0.3-0.1,0.3-0.2
      c-0.1,0-0.2,0-0.2,0c0,0-0.2,0-0.2-0.1c0-0.1,0.1-0.4,0.5-0.9L12.6,17.2z"/>
  </g>
  <polygon fill="#40B1B9" points="11.8,5.1 11.9,5.1 11.9,5.3 12.1,5.3 12.1,5.1 12.3,5.1 12.3,5 11.8,5   "/>
</g>
</svg>
